<?xml version="1.0" encoding="UTF-8"?>
<svg xmlns="http://www.w3.org/2000/svg" xmlns:xlink="http://www.w3.org/1999/xlink" width="854" height="480" viewBox="0 0 854 480">
<defs>
<g>
<g id="glyph-0-0">
<path d="M 1.097656 -0.6875 L 2.375 -0.6875 L 2.375 -5.277344 L 0.847656 -4.539062 L 0.847656 -5.332031 L 2.367188 -6.054688 L 3.191406 -6.054688 L 3.191406 -0.6875 L 4.453125 -0.6875 L 4.453125 0 L 1.097656 0 Z "/>
</g>
<g id="glyph-0-1">
<path d="M 1.519531 -0.691406 L 4.308594 -0.691406 L 4.308594 0 L 0.617188 0 L 0.617188 -0.691406 C 1.125 -1.226562 1.570312 -1.699219 1.949219 -2.109375 C 2.328125 -2.519531 2.589844 -2.804688 2.734375 -2.972656 C 3.003906 -3.304688 3.1875 -3.574219 3.285156 -3.777344 C 3.378906 -3.984375 3.425781 -4.191406 3.425781 -4.40625 C 3.425781 -4.746094 3.328125 -5.011719 3.125 -5.203125 C 2.925781 -5.394531 2.652344 -5.492188 2.308594 -5.492188 C 2.0625 -5.492188 1.800781 -5.449219 1.53125 -5.359375 C 1.257812 -5.269531 0.972656 -5.132812 0.667969 -4.953125 L 0.667969 -5.78125 C 0.945312 -5.914062 1.222656 -6.015625 1.492188 -6.082031 C 1.761719 -6.152344 2.027344 -6.183594 2.289062 -6.183594 C 2.882812 -6.183594 3.363281 -6.027344 3.726562 -5.710938 C 4.085938 -5.394531 4.269531 -4.980469 4.269531 -4.46875 C 4.269531 -4.207031 4.207031 -3.945312 4.085938 -3.6875 C 3.964844 -3.425781 3.769531 -3.136719 3.5 -2.824219 C 3.347656 -2.648438 3.125 -2.402344 2.839844 -2.089844 C 2.550781 -1.777344 2.109375 -1.3125 1.519531 -0.691406 Z "/>
</g>
<g id="glyph-0-2">
<path d="M 3.15625 -3.25 C 3.554688 -3.144531 3.863281 -2.957031 4.074219 -2.6875 C 4.285156 -2.417969 4.390625 -2.082031 4.390625 -1.675781 C 4.390625 -1.117188 4.203125 -0.679688 3.828125 -0.359375 C 3.453125 -0.0429688 2.929688 0.117188 2.265625 0.117188 C 1.988281 0.117188 1.703125 0.09375 1.410156 0.0390625 C 1.121094 -0.0117188 0.835938 -0.0859375 0.558594 -0.183594 L 0.558594 -1 C 0.835938 -0.855469 1.105469 -0.75 1.375 -0.679688 C 1.644531 -0.609375 1.910156 -0.574219 2.175781 -0.574219 C 2.625 -0.574219 2.972656 -0.675781 3.214844 -0.878906 C 3.457031 -1.082031 3.578125 -1.375 3.578125 -1.757812 C 3.578125 -2.109375 3.457031 -2.390625 3.214844 -2.597656 C 2.972656 -2.804688 2.644531 -2.910156 2.234375 -2.910156 L 1.605469 -2.910156 L 1.605469 -3.585938 L 2.234375 -3.585938 C 2.609375 -3.585938 2.90625 -3.667969 3.117188 -3.832031 C 3.328125 -4 3.433594 -4.230469 3.433594 -4.523438 C 3.433594 -4.835938 3.335938 -5.074219 3.140625 -5.242188 C 2.941406 -5.410156 2.664062 -5.492188 2.300781 -5.492188 C 2.058594 -5.492188 1.808594 -5.464844 1.550781 -5.410156 C 1.292969 -5.355469 1.023438 -5.277344 0.742188 -5.167969 L 0.742188 -5.925781 C 1.070312 -6.011719 1.359375 -6.074219 1.617188 -6.121094 C 1.875 -6.164062 2.101562 -6.183594 2.300781 -6.183594 C 2.890625 -6.183594 3.363281 -6.035156 3.71875 -5.738281 C 4.070312 -5.441406 4.246094 -5.046875 4.246094 -4.558594 C 4.246094 -4.222656 4.15625 -3.945312 3.96875 -3.722656 C 3.785156 -3.5 3.511719 -3.34375 3.15625 -3.25 Z "/>
</g>
<g id="glyph-0-3">
<path d="M 2.992188 -5.324219 L 1.074219 -2.117188 L 2.992188 -2.117188 Z M 2.855469 -6.074219 L 3.808594 -6.074219 L 3.808594 -2.117188 L 4.617188 -2.117188 L 4.617188 -1.449219 L 3.808594 -1.449219 L 3.808594 0 L 2.992188 0 L 2.992188 -1.449219 L 0.414062 -1.449219 L 0.414062 -2.226562 Z "/>
</g>
<g id="glyph-0-4">
<path d="M 0.84375 -6.074219 L 3.917969 -6.074219 L 3.917969 -5.382812 L 1.589844 -5.382812 L 1.589844 -3.890625 C 1.707031 -3.933594 1.824219 -3.964844 1.941406 -3.984375 C 2.058594 -4.003906 2.179688 -4.015625 2.300781 -4.015625 C 2.929688 -4.015625 3.425781 -3.832031 3.796875 -3.457031 C 4.164062 -3.085938 4.347656 -2.582031 4.347656 -1.949219 C 4.347656 -1.308594 4.15625 -0.804688 3.769531 -0.433594 C 3.382812 -0.0664062 2.855469 0.117188 2.183594 0.117188 C 1.863281 0.117188 1.566406 0.0976562 1.300781 0.0546875 C 1.03125 0.0117188 0.792969 -0.0546875 0.582031 -0.140625 L 0.582031 -0.976562 C 0.832031 -0.839844 1.082031 -0.738281 1.335938 -0.671875 C 1.585938 -0.605469 1.84375 -0.574219 2.109375 -0.574219 C 2.5625 -0.574219 2.910156 -0.691406 3.15625 -0.933594 C 3.402344 -1.171875 3.523438 -1.507812 3.523438 -1.949219 C 3.523438 -2.382812 3.398438 -2.722656 3.144531 -2.960938 C 2.890625 -3.203125 2.535156 -3.324219 2.082031 -3.324219 C 1.863281 -3.324219 1.648438 -3.300781 1.441406 -3.25 C 1.230469 -3.199219 1.03125 -3.125 0.84375 -3.023438 Z "/>
</g>
</g>
</defs>
<g fill="rgb(26.666667%, 26.666667%, 26.666667%)" fill-opacity="1">
<use xlink:href="#glyph-0-0" x="30" y="27.735352"/>
<use xlink:href="#glyph-0-1" x="35" y="27.735352"/>
<use xlink:href="#glyph-0-2" x="40" y="27.735352"/>
<use xlink:href="#glyph-0-3" x="45" y="27.735352"/>
<use xlink:href="#glyph-0-4" x="50" y="27.735352"/>
</g>
</svg>
